<mxfile host="app.diagrams.net" modified="2024-05-14T12:27:34.118Z" agent="Mozilla/5.0 (Macintosh; Intel Mac OS X 10_15_7) AppleWebKit/537.36 (KHTML, like Gecko) Chrome/120.0.0.0 YaBrowser/24.1.0.0 Safari/537.36" version="24.3.0" etag="ctZ9oUKS2Er1QT8UmEm5" type="github">
  <diagram name="Страница — 1" id="aJfv_OOAu8hJHJ71qR_u">
    <mxGraphModel>
      <root>
        <mxCell id="0" />
        <mxCell id="1" parent="0" />
      </root>
    </mxGraphModel>
  </diagram>
</mxfile>
